<?xml version="1.0" standalone="no"?>
<!DOCTYPE svg PUBLIC "-//W3C//DTD SVG 20010904//EN"
 "http://www.w3.org/TR/2001/REC-SVG-20010904/DTD/svg10.dtd">
<svg version="1.0" xmlns="http://www.w3.org/2000/svg"
 width="512.000000pt" height="512.000000pt" viewBox="0 0 512.000000 512.000000"
 preserveAspectRatio="xMidYMid meet">

<g transform="translate(0.000000,512.000000) scale(0.100000,-0.100000)"
fill="#000000" stroke="none">
<path d="M2315 5109 c-800 -83 -1501 -518 -1927 -1196 -604 -961 -490 -2237
274 -3068 425 -462 951 -737 1583 -827 119 -17 512 -16 635 1 622 86 1148 360
1572 820 349 378 572 862 650 1406 17 118 17 512 0 630 -59 416 -191 769 -410
1099 -92 140 -185 254 -315 385 -399 404 -893 653 -1462 737 -123 18 -478 26
-600 13z m633 -1781 c21 -15 47 -43 57 -65 40 -83 43 -74 -275 -768 -161 -352
-302 -652 -312 -667 -24 -35 -95 -68 -147 -68 -51 0 -112 30 -139 67 -27 38
-44 106 -36 140 8 34 565 1251 599 1309 50 84 167 108 253 52z m-1110 -79 c89
-44 131 -146 97 -237 -14 -37 -57 -86 -207 -238 -141 -143 -188 -196 -188
-215 0 -18 43 -67 176 -199 96 -96 187 -195 202 -220 73 -122 -2 -270 -146
-287 -84 -10 -112 11 -378 279 -280 283 -289 296 -289 428 0 132 9 145 289
429 156 157 255 250 281 262 53 25 109 24 163 -2z m1607 2 c60 -28 514 -491
545 -556 34 -71 34 -199 0 -270 -30 -64 -483 -525 -545 -555 -151 -73 -319 81
-260 238 14 37 57 86 207 238 139 141 188 196 188 214 0 18 -48 73 -189 215
-194 195 -221 231 -221 300 0 71 52 153 115 181 43 19 113 17 160 -5z"/>
</g>
</svg>
